<svg width="300" height="300" viewBox="0 0 300 300" fill="none" xmlns="http://www.w3.org/2000/svg">
<path fill-rule="evenodd" clip-rule="evenodd" d="M22.177 225.388C18.2031 227.452 14.1114 229.86 9.79919 232.735C7.51018 234.262 7.50118 236.554 7.56268 236.8C7.88518 238.57 9.81569 239.697 11.1027 240.339C19.0065 244.044 22.5138 244.783 37.7202 247.992V247.993C40.4523 248.569 43.5624 249.225 47.1432 249.993C59.2107 252.727 131.611 268.173 155.745 273C160.098 273.87 164.458 274.756 168.826 275.644C188.673 279.678 208.666 283.741 228.79 286.515C229.356 286.593 229.926 286.692 230.482 286.788C232.468 287.133 234.255 287.442 234.849 286.63C252.507 279.229 268.881 268.149 283.333 255.786C283.914 255.277 284.53 254.787 285.151 254.293C287.286 252.597 289.471 250.86 290.412 248.223C290.812 247.104 291.955 242.854 290.863 242.565H290.862C285.264 241.065 279.171 239.572 272.703 238.096L272.589 239.598C278.437 240.939 283.993 242.298 289.177 243.667C265.206 266.233 243.231 276.151 235.753 279.526C234.199 280.228 233.271 280.648 233.082 280.839C169.879 270.331 106.307 256.44 44.8047 242.998L44.3682 242.904C42.441 242.482 40.6204 242.092 38.8795 241.719H38.874C28.5255 239.5 20.9947 237.888 10.6677 233.958C15.1759 230.955 19.4395 228.468 23.5815 226.351C23.04 226.065 22.5576 225.744 22.177 225.388ZM83.2857 209.031C85.3705 209.286 88.062 209.619 91.2813 210.025C91.2211 209.509 91.1613 208.995 91.1016 208.479C87.8917 208.078 85.2091 207.753 83.1325 207.507C83.1826 208.015 83.2336 208.522 83.2857 209.031ZM162.646 218.343C162.628 218.847 162.609 219.346 162.588 219.838C168.019 220.65 173.566 221.496 179.181 222.372C179.161 221.869 179.143 221.368 179.124 220.866C173.551 219.994 168.043 219.153 162.646 218.343Z" fill="black"/>
<path fill-rule="evenodd" clip-rule="evenodd" d="M80.6277 89.0881C83.5696 138.045 88.1446 186.909 94.4142 235.555C92.3065 236.757 90.2881 237.913 88.5193 239.062C88.4293 239.439 88.0768 239.761 87.6898 239.761C66.2322 238.537 45.1795 233.169 31.4686 229.671C30.1624 229.338 28.9228 229.021 27.7558 228.727C21.0124 227.029 20.7022 225.397 20.2227 222.871C20.1951 222.727 20.1672 222.58 20.1373 222.429C19.1328 217.36 18.3348 211.545 17.478 205.3C17.1192 202.686 16.7502 199.996 16.3513 197.254C10.1668 156.852 7.36485 108.795 7.80285 102.432C7.25235 102.197 7.53285 101.618 7.83885 101.589C13.0821 99.6089 18.5094 98.0219 23.7562 96.4877L23.7763 96.4818C29.4046 94.8356 33.8037 93.486 37.3687 92.3923C48.5931 88.9491 51.55 88.0421 58.5763 88.3938C58.5763 88.3938 69.2014 88.7271 80.6277 89.0881ZM29.6652 227.425C29.8917 227.487 30.1146 227.548 30.3355 227.608C32.5836 228.225 34.6504 228.792 38.5843 229.776C38.5693 229.626 29.6458 119.262 29.5558 110.862C25.5073 110.415 21.8233 109.928 18.2848 109.371C19.3359 117.546 29.6275 227.023 29.6652 227.425ZM30.5818 110.973C30.9448 113.717 39.7198 222.442 40.0828 230.139V230.14C44.1148 231.13 48.1543 232.054 52.2013 232.888C52.1863 232.734 42.9628 121.376 42.9043 112.095C38.6848 111.768 34.7893 111.425 30.5818 110.973ZM44.7111 120.114C44.7765 121.635 44.8414 123.148 44.9518 124.644H44.9533L53.8303 233.206C57.5473 233.953 61.2673 234.643 64.9858 235.258C64.7998 233.418 55.4143 119.63 55.3453 112.926C51.5338 112.71 47.7928 112.463 44.1313 112.185C44.484 114.823 44.5981 117.481 44.7111 120.114ZM56.4838 112.988C56.7943 115.182 66.0223 226.063 66.4573 235.497C70.6363 236.166 74.8138 236.754 78.9838 237.255C77.0143 229.702 75.7318 221.553 75.0748 212.361C74.3445 204.004 72.3583 183.099 70.3839 162.315C68.4447 141.905 66.5167 121.611 65.8003 113.436C62.6593 113.31 59.5573 113.156 56.4838 112.988ZM76.9693 214.737C77.6128 222.771 78.8878 230.395 80.7283 237.456C82.6828 237.679 84.6358 237.895 86.5858 238.081C81.084 210.397 80.0856 181.638 79.1053 153.405C78.5439 137.232 77.9884 121.231 76.5958 105.705C67.7095 105.326 60.0304 105.024 53.0371 104.748C36.9538 104.116 24.4986 103.626 9.33134 102.665C9.57284 104.486 9.71835 106.407 9.71835 108.41C9.79785 109.524 10.8433 128.505 10.8433 128.505C12.8564 161.397 16.0876 183.843 20.4592 214.207C20.8206 216.718 21.1899 219.283 21.5668 221.911C22.0672 225.397 23.7288 225.837 28.0312 226.975L28.0468 226.978C17.8465 117.051 16.7814 108.512 17.5306 108.349C17.6349 108.327 17.7744 108.467 17.9293 108.518C20.8332 108.745 24.1971 109.073 27.9571 109.44C38.2939 110.45 51.6237 111.751 66.6133 112.046C66.9043 112.046 67.3168 112.316 67.3168 112.754C68.2033 121.313 76.9693 214.737 76.9693 214.737Z" fill="black"/>
<path d="M46.1761 80.6711C45.2146 80.6711 45.3076 80.8633 45.3076 92.3203C45.3076 93.2608 47.0446 93.7978 47.0446 92.3203C47.0446 80.9353 47.1376 80.6711 46.1761 80.6711Z" fill="black"/>
<path d="M53.4795 93.2847C53.4795 92.0712 53.1585 93.2757 53.1585 72.8517C53.1585 72.0747 51.9165 72.0687 51.9045 72.8412C50.9115 85.2867 51.744 92.9217 51.744 93.7677C51.744 98.0022 54.2685 97.9047 53.481 93.2847H53.4795Z" fill="black"/>
<path d="M171.412 39.0551C170.308 13.8355 170.424 14.512 170.098 13.4605C169.554 11.686 168.646 12.7075 168.471 14.098C168.219 16.1201 168.903 18.1541 169.354 38.9036C169.383 40.1921 169.354 41.5241 169.86 42.7046C170.212 43.4096 171.205 43.2386 171.25 42.6401C171.54 41.6111 171.597 40.3316 171.412 39.0551Z" fill="black"/>
<path d="M178.17 25.8717C178.17 24.7827 176.594 24.7827 176.594 25.8717C176.594 31.1697 177.081 36.5802 177.399 41.8002C177.399 43.1007 179.505 43.0197 179.297 41.7867C178.985 36.6507 178.815 31.1757 178.17 25.8732V25.8717Z" fill="black"/>
<path fill-rule="evenodd" clip-rule="evenodd" d="M213.239 38.8258C213.284 38.4568 213.072 38.0008 212.559 37.8748C183.305 35.0278 155.537 33.8518 144.176 33.8518C135.175 33.1879 130.031 34.978 124.79 36.8019C124.453 36.919 124.116 37.0365 123.777 37.1533C115.238 40.096 104.951 42.8746 94.708 45.6415C89.2561 47.1141 83.8164 48.5836 78.6586 50.0728C78.3091 50.1733 78.0721 50.4958 78.0781 50.8588C78.4546 72.4783 82.4881 138.969 90.2911 207.04C93.331 233.563 94.6242 240.032 94.9335 241.582C95.0065 241.946 95.0248 242.038 94.9981 242.054C94.9894 242.059 94.9756 242.056 94.9573 242.051C94.948 242.05 94.9377 242.047 94.9261 242.045C94.4581 242.045 94.0351 242.747 94.8676 242.971C100.977 244.616 107.319 245.758 113.452 246.862C114.369 247.028 121.778 248.473 130.447 250.163H130.45L130.452 250.165C143.11 252.632 158.454 255.625 160.209 255.925C160.296 255.94 160.368 255.953 160.431 255.965C160.59 255.995 160.683 256.013 160.775 256.006C160.902 255.995 161.027 255.935 161.324 255.791C161.411 255.749 161.511 255.701 161.633 255.643C163.053 254.972 164.523 254.293 166.043 253.589H166.044C170.411 251.57 175.187 249.362 180.348 246.635C179.832 237.427 179.345 227.651 179.018 217.843C172.037 233.729 165.897 247.702 164.414 251.065C164.006 252.301 162.275 251.336 162.711 250.247C163.647 248.065 170.808 231.773 178.881 213.422C178.421 197.08 178.458 180.878 179.597 167.308C179.597 167.308 195.033 163.322 201.743 161.479C201.903 161.113 202.055 160.769 202.196 160.448C202.964 159.215 203.162 157.654 202.671 156.266C202.086 154.615 197.406 146.787 196.778 145.758L196.532 145.354C189.251 133.42 181.248 120.304 169.079 104.364C168.875 104.167 168.84 103.713 169.076 103.449C171.809 98.7865 199.476 54.31 200.763 52.2985C203.315 48.31 205.835 44.8315 208.835 40.8325C208.949 40.6825 209.366 40.5895 209.546 40.7755L209.547 40.777C209.88 41.1214 209.376 41.8968 206.22 46.7548C201.69 53.7271 191.697 69.1092 170.871 103.696C184.452 121.566 196.901 141.496 200.99 149.166C201.681 150.463 202.302 151.523 202.833 152.432C204.846 155.872 205.592 157.145 204.101 160.811C205.148 160.496 206.304 160.099 207.509 159.67C207.914 154.447 208.335 149.207 208.758 143.953C210.428 123.199 212.115 102.212 212.924 81.0643C213.744 57.5308 213.41 46.4446 213.266 41.7012C213.218 40.0906 213.191 39.2113 213.239 38.8243V38.8258ZM154.46 252.869C152.537 252.485 103.316 243.409 100.206 242.876C99.8221 238.951 99.3706 234.761 98.9071 230.615C100.115 230.782 102.322 230.941 105.096 231.14C109.357 231.446 114.955 231.85 120.321 232.52C132.329 233.77 147.008 236.192 149.898 236.86C151.623 237.257 153.581 237.676 155.493 237.893C155.417 239.692 155.196 242.581 154.973 245.504C154.767 248.209 154.559 250.943 154.46 252.869ZM142.741 234.104H142.739C137.847 233.306 128.499 231.784 110.717 230.302C107.123 229.903 103.199 229.702 98.8006 229.67C98.5183 227.161 97.7548 220.534 97.2564 216.205L97.2562 216.203C97.0689 214.577 96.919 213.275 96.8461 212.639C99.1644 212.993 101.284 213.122 104.224 213.299C111.474 213.737 123.714 214.477 156.224 219.647C156.027 225.25 155.792 230.852 155.558 236.333C152.513 235.592 149.1 235.063 145.16 234.488V234.487C144.508 234.392 143.713 234.263 142.741 234.104ZM95.2831 77.4808C116.549 78.0423 135.217 79.7193 146.283 80.7135C151.121 81.148 154.505 81.4521 156.018 81.4753C156.044 82.2343 156.587 100.569 156.635 102.846C145.844 101.353 98.8576 98.5363 86.5651 98.8333C86.3533 95.6583 86.2188 93.7875 86.1067 92.2315C85.8691 88.9276 85.7334 87.0421 85.1776 77.1028C85.1764 77.0811 85.1724 77.0628 85.1691 77.0475C85.1647 77.0278 85.1614 77.0133 85.1668 77.0031C85.1823 76.9735 85.2702 76.9818 85.6141 77.0142C86.4493 77.0929 88.795 77.3139 95.2816 77.4808H95.2831ZM85.1146 75.9973C84.6271 67.0483 84.0046 58.7923 83.7631 56.1088C85.6104 56.2584 85.978 56.2669 88.8045 56.3325C91.8423 56.403 97.7205 56.5395 111.329 56.9878C123.298 57.3814 138.634 58.4874 148.184 59.1762C151.409 59.4088 153.975 59.5939 155.528 59.6878C155.549 66.4483 155.745 73.2598 155.967 79.9408C145.935 78.6013 97.6621 75.6463 85.1161 75.9973H85.1146ZM141.248 103.002C145.563 103.272 148.267 103.583 150.428 103.832C152.696 104.094 154.365 104.286 156.668 104.289C156.809 111.258 156.917 118.26 157.01 125.194C151.337 124.417 102.429 121.021 88.1836 121.36C87.6436 114.228 87.1186 107.029 86.6356 99.8608C89.2179 100.095 92.7103 100.216 97.4041 100.38C106.635 100.701 120.512 101.183 141.249 103.002H141.248ZM97.6501 122.853C118.084 123.384 149.088 125.979 155.751 126.537C156.504 126.6 156.947 126.637 157.028 126.642C157.061 129.108 157.218 144.162 157.232 149.119C145.923 147.609 102.753 144.681 90.1456 145.015C89.7751 140.857 88.5166 125.781 88.2571 122.376C91.3981 122.676 94.5706 122.77 97.6486 122.853H97.6501ZM151.449 150.146H151.451C154.605 150.434 156.66 150.623 157.238 150.637C157.251 157.711 157.22 164.81 157.139 171.887C154.634 171.506 152.025 171.29 149.498 171.082L149.457 171.077C146.417 170.828 145.032 170.683 143.874 170.561C142.169 170.383 140.959 170.255 135.675 169.922L135.502 169.91C132.979 169.729 103.618 167.624 92.1796 167.843L90.2521 146.179C93.2791 146.482 96.3121 146.577 99.2521 146.661L99.2506 146.662C119.645 147.241 141.269 149.217 151.449 150.146ZM100.371 169.508C115.974 169.951 134.412 171.551 146.166 172.571H146.167C151.475 173.033 155.418 173.375 157.122 173.438C157.041 180.052 156.951 187.147 156.833 194.351C146.628 192.835 105.258 190.096 94.3816 190.381C93.6736 183.743 92.3311 169.573 92.2906 169.109C95.0101 169.345 97.7281 169.433 100.371 169.508ZM102.701 192.032C115.826 192.421 138.269 194.297 149.716 195.254C153.681 195.586 156.327 195.806 156.809 195.817C156.72 201.004 156.356 215.888 156.279 218.153C150.995 216.961 114.33 211.841 96.7516 211.805C96.5941 210.421 95.0896 196.963 94.5136 191.596C97.1956 191.861 99.9856 191.954 102.701 192.034V192.032ZM156.188 253.217C157.592 253.507 158.972 253.799 160.343 254.11C160.343 251.894 160.554 246.736 160.847 239.578C161.511 223.364 162.594 196.897 162.594 171.155C162.594 152.987 161.075 91.5303 160.451 66.2952V66.2916C160.29 59.8038 160.19 55.7109 160.188 55.3648C153.693 55.0101 150.242 54.6924 146.7 54.3666C140.462 53.7924 133.949 53.193 110.037 52.3213C91.7325 51.6538 85.9353 51.6082 83.0328 51.5854C81.369 51.5724 80.6565 51.5667 79.0846 51.4558C79.6765 58.8681 80.1531 66.6888 80.7091 75.8124C81.9622 96.3759 83.6187 123.557 87.9076 167.594C90.1788 189.758 92.335 207.709 93.9391 221.063C95.0652 230.438 95.9191 237.547 96.3496 242.257C97.1926 242.38 98.0356 242.518 98.8786 242.656C98.8047 242.108 98.6911 241.333 98.5404 240.304C97.4578 232.915 94.4578 212.44 90.4606 168.908C90.0796 168.742 90.1456 168.082 90.3706 167.933C87.6466 138.033 83.4136 86.6548 82.9606 56.0458C82.9396 55.4698 83.2291 55.2178 83.5066 55.2028C93.0123 54.6696 98.9428 54.9358 123.452 56.0365L127.434 56.2153C136.773 56.6338 146.424 57.1648 156.086 58.1473C156.644 58.2838 156.957 58.9273 156.645 59.4088C156.68 60.3946 156.762 61.287 156.843 62.1739C156.873 62.5069 156.903 62.8392 156.932 63.1753C159.57 95.0158 159.615 188.294 158.214 216.304C157.812 224.354 157.605 230.102 157.44 234.653C157.157 242.53 157.002 246.812 156.188 253.217ZM160.806 53.7613C128.496 50.9248 89.1496 50.0413 82.3996 50.3098C110.022 43.4284 119.832 40.0402 125.377 38.1255C128.887 36.9132 130.687 36.2914 134.214 35.7478C136.724 35.3893 139.034 35.2813 141.101 35.4283C151.697 35.4283 180.828 36.5578 209.025 39.1303C193.058 42.2548 175.383 47.4733 160.806 53.7613Z" fill="black"/>
<path fill-rule="evenodd" clip-rule="evenodd" d="M223.857 155.258C218.208 155.186 215.389 156.172 210.621 157.84C207.685 158.866 204.01 160.151 198.481 161.608C196.389 162.182 194.205 162.742 191.976 163.312C187.761 164.39 183.393 165.508 179.212 166.849C179.01 166.913 178.869 167.098 178.857 167.311C177.916 186.251 177.249 203.243 178.686 234.397C178.9 239.324 179.652 252.578 180.408 257.681C180.189 257.749 179.881 257.984 179.854 258.274C179.821 258.619 180.138 258.859 180.796 258.986C182.113 259.24 189.676 260.723 198.865 262.525C214.444 265.579 234.697 269.549 237.109 270.004C237.523 270.082 237.885 269.905 238.063 269.542C243.667 267.167 249.955 264.25 255.277 261.293C261.828 257.846 266.307 255.401 272.226 250.955C272.812 250.369 273.102 245.368 273.384 240.476C273.498 238.531 273.609 236.603 273.738 234.977C275.392 214.085 275.772 204.16 275.968 196.669C276.096 196.489 276.075 196.372 275.979 196.207C276.297 183.65 276.12 176.953 275.893 168.392C275.823 165.698 275.746 162.82 275.679 159.515L275.682 159.517C276.016 159.067 275.772 158.375 275.148 158.222C261.699 156.911 249.628 156.229 240.723 155.849C240.783 156.338 240.843 156.827 240.906 157.316C250.488 157.756 258.652 158.366 269.206 159.284C259.722 161.306 245.25 165.629 237.402 169.432C221.313 167.809 188.355 166.712 182.784 167.044C198.808 163.187 204.304 161.399 211.809 158.957C212.119 158.857 212.431 158.755 212.749 158.651H212.748L212.793 158.636C216.166 157.54 219.001 156.619 223.962 156.742C223.993 156.742 224.025 156.743 224.056 156.743C223.986 156.248 223.92 155.753 223.857 155.258ZM272.688 183.629C273.919 182.746 274.015 182.678 274.357 182.552H274.359C274.338 179.497 274.302 176.447 274.246 173.396C273.574 173.774 272.974 174.073 271.911 174.502C271.525 174.655 271.446 174.694 271.365 174.734C271.282 174.775 271.198 174.817 270.807 174.974C270.786 183.43 270.3 185.075 270.46 185.141C270.502 185.158 270.585 185.072 270.729 184.97L270.787 184.93C271.17 184.663 271.561 184.39 271.951 184.156C272.235 183.953 272.478 183.779 272.688 183.629ZM273.076 172.654C273.439 172.451 273.808 172.247 274.222 172.081C274.179 169.793 274.132 167.521 274.08 165.248C273.501 165.493 272.473 165.887 270.579 166.568C270.721 168.923 270.793 171.353 270.807 173.827C271.17 173.591 271.554 173.372 271.984 173.2C272.37 173.045 272.721 172.85 273.076 172.654ZM274.051 164.077L273.96 160.142C272.695 160.373 271.408 160.627 270.093 160.904C270.258 162.386 270.39 163.915 270.498 165.472C270.837 165.326 271.15 165.191 271.443 165.064C272.596 164.563 273.409 164.21 274.051 164.077ZM252.342 241.396C254.088 240.412 254.092 240.409 255.127 239.918V239.917C265.266 217.876 270.088 194.149 269.428 168.956C267.369 169.705 245.749 176.357 245.749 176.357C245.53 176.443 240.811 178.262 238.746 178.835C238.843 180.845 238.986 184.985 238.986 184.985C239.908 196.037 240.781 221.531 239.469 244.535C239.343 245.996 239.244 247.426 239.157 248.876C240.151 248.231 241.174 247.625 242.193 247.061C248.044 243.82 250.837 242.245 252.342 241.396ZM238.128 170.815C238.392 173.087 238.564 175.387 238.692 177.683V177.682C240.574 176.954 267.828 167.99 269.397 167.611C269.331 165.458 269.251 163.291 269.157 161.104C254.4 164.294 245.721 167.8 241.051 169.687C239.803 170.191 238.842 170.579 238.128 170.815ZM192.043 259.736C192.934 259.894 193.801 260.048 194.128 260.107V250.402L189.777 249.824V259.333C190.177 259.405 191.122 259.573 192.043 259.736ZM195.628 260.38L199.98 261.169V251.18L195.628 250.603V260.38ZM207.525 253.357C207.724 255.664 208.006 259.759 207.807 262.598H207.808C224.062 265.576 226.441 266 228.814 266.461C229.422 266.579 230.028 266.699 230.868 266.866C230.301 263.402 230.425 258.197 230.659 257.029C230.667 256.988 230.682 256.96 230.698 256.927C230.746 256.832 230.814 256.699 230.815 256.148C230.704 255.874 230.425 255.851 230.074 255.851C221.988 254.74 219.409 254.497 214.564 254.039C212.7 253.864 210.501 253.657 207.525 253.357ZM232.593 267.215C233.926 267.488 235.264 267.769 236.595 268.075L236.599 268.079C236.455 262.523 236.7 258.977 236.968 255.086C237.06 253.772 237.153 252.418 237.235 250.933C237.085 250.915 195.094 245.296 188.614 243.866C188.211 244.327 187.377 244.109 187.377 243.401C187.347 242.464 187.272 240.716 187.171 238.387C186.801 229.84 186.09 213.457 186.09 200.443C186.09 187.748 186.153 185.746 186.199 184.255C186.228 183.368 186.25 182.663 186.25 180.008C186.103 178.12 186.214 175.882 186.571 173.552C186.582 173.371 186.708 173.276 186.832 173.276C186.849 173.276 186.865 173.285 186.88 173.296C186.889 173.302 186.898 173.306 186.907 173.311C187.243 172.91 194.536 173.606 195.706 173.719C195.762 173.725 195.804 173.728 195.831 173.731C203.524 174.455 211.429 175.165 218.248 175.778C228.576 176.705 236.412 177.409 237.249 177.602C237.069 174.946 236.868 172.36 236.761 171.028C203.107 168.55 195.003 168.505 189.562 168.473C186.72 168.458 184.606 168.446 179.958 168.094C180.147 172.673 180.082 177.37 180.013 181.918C179.479 218.129 180.511 233.578 181.197 243.821C181.555 249.184 181.818 253.12 181.711 257.863C183.279 258.133 187.633 258.941 188.277 259.061C188.277 249.292 188.193 248.726 188.433 248.489C188.461 248.462 188.494 248.438 188.532 248.405C188.566 248.374 188.593 248.347 188.623 248.324C188.911 248.104 189.508 248.285 200.829 249.781C201.201 249.83 201.48 250.148 201.48 250.525V261.443L206.508 262.361C206.562 260.894 206.46 258.773 206.356 256.607C206.293 255.289 206.229 253.954 206.199 252.742C206.188 252.293 206.611 252.016 206.907 252.023C214.825 252.212 229.864 254.216 231.417 254.605C232.674 255.14 232.423 256.61 232.257 257.584C231.97 259.255 231.964 263.476 232.593 267.215ZM213.838 176.893C213.96 178.355 215.979 240.82 215.979 240.82V240.821C216.267 242.678 216.285 244.651 216.061 246.556L226.452 247.876C226.152 245.224 226.147 242.693 226.147 240.02C226.147 232.232 226.03 224.014 225.918 216.043C225.705 200.969 225.504 186.781 226.126 178.072L213.838 176.893ZM201.213 207.613C201.259 212.104 201.298 215.93 201.337 218.135C201.337 226.783 201.505 232.382 201.627 236.435C201.736 240.071 201.807 242.461 201.687 244.688C207.744 245.389 209.908 245.705 211.744 245.974C212.665 246.107 213.504 246.23 214.708 246.383C214.585 245.587 212.406 179.668 212.524 176.767L200.574 175.615C200.911 178.627 201.087 195.524 201.213 207.613ZM187.083 174.143C189.241 174.563 190.924 174.718 195.046 175.096C196.339 175.214 197.872 175.354 199.737 175.532C199.624 177.116 199.627 177.407 199.689 182.689C199.767 189.265 199.935 203.579 200.083 237.766C200.083 237.857 200.083 237.949 200.085 238.04C200.089 239.26 200.095 240.605 200.244 241.789C200.244 242.743 200.266 243.617 200.331 244.519C200.052 244.481 199.411 244.402 198.654 244.307C197.287 244.138 195.543 243.922 194.872 243.818C192.876 243.511 190.816 243.2 188.778 243.179C187.539 219.944 187.447 200.968 187.389 188.623C187.353 181.291 187.329 176.297 187.083 174.143ZM235.758 249.128C236.265 249.128 236.8 249.175 237.328 249.259H237.33C238.777 224.891 238.594 218.615 238.032 199.247C237.987 197.746 237.942 196.166 237.894 194.494C237.894 190.016 237.568 182.633 237.339 179.014C236.509 179.08 236.505 179.08 235.413 178.955C234.333 178.831 232.188 178.586 227.131 178.165C227.281 179.749 227.278 186.616 227.274 195.013C227.271 203.173 227.266 212.779 227.401 220.387C227.401 236.297 227.715 241.15 227.88 243.685C227.986 245.324 228.03 245.993 227.884 248.057C230.971 248.449 231.798 248.549 232.623 248.663C233.283 248.756 233.941 248.858 235.758 249.128ZM237.814 268.151C238.192 267.923 238.482 267.761 238.773 267.611H238.774C239.44 266.63 240.139 265.639 240.876 264.595C244.315 259.715 248.574 253.673 254.074 242.213C253.452 242.56 243.051 248.101 243.051 248.101C242.616 248.342 242.149 248.63 241.669 248.926C240.808 249.457 239.899 250.018 239.034 250.399C239.058 250.442 239.011 251.356 238.956 252.452C238.903 253.487 238.843 254.686 238.825 255.475C238.744 259.16 238.509 263.113 237.814 268.151ZM268.813 251.312C269.664 250.727 270.388 250.229 271.042 249.814L271.041 249.812C271.06 244.328 271.302 241.889 271.587 239.006C271.624 238.618 271.665 238.22 271.704 237.808C270.49 238.655 269.209 239.428 267.814 240.062C264.558 241.894 262.513 243.098 260.916 244.039C258.115 245.686 256.687 246.527 252.514 248.527C248.532 256.136 244.242 262.912 241.819 266.207C257.839 258.854 264.766 254.093 268.813 251.312ZM267.292 238.696C268.599 237.676 270.082 236.9 271.863 236.081V236.08C272.119 233.339 272.262 231.254 272.388 229.406C272.454 228.44 272.517 227.539 272.587 226.643C269.73 228.592 267.051 230.158 262.342 232.18C262.291 232.202 262.158 232.261 261.972 232.345C261.358 232.621 260.16 233.158 259.339 233.489C257.499 238.141 255.463 242.708 253.209 247.153C255.918 245.204 258.888 243.382 262.308 241.589L262.366 241.555C263.922 240.622 265.54 239.651 267.292 238.696ZM272.26 225.034C272.406 224.936 272.568 224.911 272.719 224.947V224.945C273.031 220.904 273.3 217.045 273.526 213.344L273.345 213.445C270.393 215.083 269.718 215.458 267.324 216.416C266.548 216.727 265.848 216.871 265.27 216.989C265.128 217.018 264.994 217.045 264.868 217.073C263.445 222.181 261.78 227.221 259.873 232.163C260.029 232.075 260.415 231.875 260.946 231.599C262.182 230.959 264.213 229.906 266.002 228.884C268.318 227.726 270.283 226.402 272.26 225.034ZM273.625 211.705C273.906 206.903 274.116 202.361 274.255 198.02H274.257C274.26 197.9 274.267 197.855 274.254 197.848C274.237 197.839 274.188 197.891 274.054 197.924C273.487 198.209 272.997 198.461 272.559 198.686C270.928 199.525 270.021 199.993 268.597 200.398C267.709 205.64 266.568 210.85 265.171 215.993C265.719 215.692 266.244 215.431 266.835 215.195C267.673 214.859 268.138 214.675 268.591 214.465C269.437 214.072 270.243 213.587 273.381 211.843C273.456 211.772 273.54 211.733 273.625 211.705ZM273.384 196.715C273.634 196.474 273.949 196.313 274.281 196.19V196.192C274.36 192.247 274.381 188.273 274.365 184.288C274.236 184.366 272.67 185.347 272.67 185.347C271.785 185.791 271.044 186.229 270.328 186.658C269.988 190.838 269.479 195.017 268.807 199.175C270.055 198.37 271.162 197.819 272.626 197.093C272.868 196.972 273.12 196.847 273.384 196.715Z" fill="black"/>
<path d="M251.538 146.701C251.538 146.182 251.179 145.845 250.366 146.067C247.141 146.389 239.608 145.687 235.531 145.677C234.462 145.528 226.339 147.34 223.465 148.116C223.362 148.105 223.26 148.098 223.156 148.086C222.714 148.086 222.439 148.35 222.448 148.803C222.516 151.939 223.288 156.483 224.241 160.384C224.263 160.479 224.346 160.549 224.445 160.555C225.588 160.63 238.306 161.785 238.519 161.821C239.634 162.01 241.201 162.292 242.139 161.662C242.302 161.497 241.95 161.613 242.757 161.392C249.931 159.436 250.681 159.234 251.793 158.121C252.16 157.753 251.536 158.121 251.536 146.7L251.538 146.701ZM239.266 150.879C239.338 151.573 239.422 152.268 239.506 152.964C240.267 159.196 240.069 159.114 240.522 160.482C239.578 160.456 239.532 160.533 238.029 160.228C237.487 160.119 237.796 160.17 233.304 159.67C232.663 159.637 232.045 159.61 231.417 159.579C231.444 159.217 231.436 159.151 231.436 156.307C231.436 155.763 231.087 155.332 230.478 155.128C229.632 154.846 229.377 155.05 228.52 154.879C226.998 154.575 226.57 155.256 226.963 156.306C226.963 159.408 226.936 159.129 226.945 159.409C226.273 159.391 225.609 159.363 224.923 159.357C224.712 156.202 224.142 153.034 224.052 149.889C229.15 150.411 234.283 150.357 239.263 150.877L239.266 150.879ZM228.196 159.442C228.232 158.956 228.22 158.665 228.219 156.034C228.427 156.054 229.681 156.18 229.861 156.196V159.504C229.311 159.478 228.747 159.463 228.196 159.444V159.442Z" fill="black"/>
</svg>
